<svg xmlns="http://www.w3.org/2000/svg" width="42" height="42" fill="var(--color)"
    viewBox="0 0 42 42">
  <style>:root { color-scheme: light dark; }</style>
    <g transform="translate(9, 9)">
        <path
            d="M5 4h4v2H5zm14 0h-4v2h4zM5 20h4v-2H5zm14 0h-4v-2h4zM3 6h2v5H3zm18 0h-2v5h2zM3 18h2v-5H3zm18 0h-2v-5h2zM1 11h2v2H1zm10 0h2v2h-2zm-4 0h2v2H7zm8 0h2v2h-2zm8 0h-2v2h2z" />
    </g>
    <defs>
        <style>
    svg {
        --color: #1e1e1e;
    }
    @media (prefers-color-scheme: dark) {
        svg {
            --color: white;
        }
    }
</style>
    </defs>
</svg>