<svg xmlns="http://www.w3.org/2000/svg" width="79" height="74" viewBox="0 0 79 74" fill="var(--color)" shape-rendering="crispEdges">
<rect x="42" y="23" width="7" height="5"/>
<rect x="38" y="42" width="11" height="8"/>
<rect x="28" y="49" width="8" height="1"/>
<rect x="33" y="44" width="3" height="5"/>
<rect x="33" y="37" width="5" height="7"/>
<rect x="38" y="33" width="12" height="9"/>
<rect x="34" y="36" width="4" height="1"/>
<rect x="38" y="30" width="9" height="3"/>
<rect x="31" y="25" width="3" height="3"/>
<rect x="33" y="28" width="14" height="2"/>
<rect x="34" y="27" width="2" height="1"/>
<rect x="32" y="23" width="2" height="2"/>
<rect x="34" y="22" width="1" height="1"/>
<rect x="35" y="21" width="1" height="1"/>
<rect x="36" y="20" width="1" height="1"/>
<rect x="43" y="21" width="4" height="1"/>
<rect x="40" y="22" width="9" height="1"/>
<rect x="39" y="25" width="3" height="3"/>
<rect x="47" y="28" width="2" height="2"/>
<rect x="49" y="26" width="1" height="2"/>
<rect x="39" y="23" width="1" height="1"/>
<path d="M19 10H58V14H19V10Z"/>
<rect x="17" y="12" width="2" height="41"/>
<rect x="60" y="12" width="2" height="41"/>
<rect x="19" y="14" width="2" height="40"/>
<rect x="58" y="10" width="2" height="44"/>
<rect x="31" y="61" width="18" height="3"/>
<rect x="56" y="54" width="4" height="2"/>
<rect x="19" y="54" width="4" height="2"/>
<rect x="29" y="59" width="2" height="4"/>
<rect x="49" y="59" width="2" height="4"/>
<rect x="25" y="59" width="4" height="2"/>
<rect x="51" y="59" width="4" height="2"/>
<rect x="52" y="57" width="5" height="2"/>
<rect x="22" y="57" width="5" height="2"/>
<rect x="21" y="56" width="2" height="3"/>
<rect x="56" y="56" width="2" height="3"/>
<defs>
<style>
    svg {
        --color: #1e1e1e;
    }
    @media (prefers-color-scheme: dark) {
        svg {
            --color: white;
        }
    }
</style>
</defs>
</svg>